<svg xmlns="http://www.w3.org/2000/svg" xmlns:xlink="http://www.w3.org/1999/xlink" version="1.1" x="0px" y="0px" viewBox="0 0 64 80" enable-background="new 0 0 64 64" xml:space="preserve"><g><path d="M24.4337711,15.0517139c0.3359375,0.0483398,0.6772461,0.0732422,1.0146484,0.0732422   c3.4824219,0,6.4838867-2.6035156,6.9814472-6.0556641c0.6143875-4.2627983-2.6916809-8.0693359-6.9970722-8.0693359   c-3.4829102,0-6.484375,2.6035156-6.9814453,6.0556641C17.8945618,10.9187832,20.5707531,14.4959564,24.4337711,15.0517139z    M20.4308414,7.3407764c0.3564453-2.4746094,2.5068359-4.3408203,5.0019531-4.3408203   c3.1007652,0,5.4562912,2.7398465,5.0175781,5.7841797c-0.3911133,2.7133789-2.9472656,4.6870117-5.7314453,4.2880859   C21.9504223,12.6732578,20.0317211,10.1103668,20.4308414,7.3407764z"/><path d="M52.3991051,24.3461475c-0.637207-0.8481445-1.9492188-1.0375977-2.800293-0.3989258l-1.9087524,1.4324341   l-0.5682983-0.7532349c-0.5067902-0.6830635-1.2339478-1.1038761-2.1281128-1.199585   c-0.0739136-0.2602539-0.1704102-0.515564-0.3010864-0.7598877c-0.9861259-1.8409576-3.2652283-2.5257797-5.0966797-1.5629883   l-7.0131836,3.6875c-0.1002083-0.0066586-0.2471809-0.0164242-0.1469727-0.0097656l-2.0655537-1.4664917   c0.3613892-2.7598877-1.5630493-5.3154907-4.3265381-5.7136841l-4.5439453-0.6542969   c-0.6056519-0.0890503-1.2075195,0.0025635-1.7565918,0.2391357l-8.9206533,2.8282471   c-2.0214844,0.6411133-3.5229497,2.4111328-3.8256841,4.5102539l-0.9287109,6.449707   c-0.2980728,2.0683231,1.1337628,3.9836597,3.2031255,4.2817364c2.0527725,0.2971878,3.982688-1.1302147,4.2817383-3.203125   l0.7138672-4.9565411c0.0092773-0.0634766,0.0600586-0.112793,0.1235352-0.1201172l2.388793-0.2780762l-1.1153555,7.7419415   c-0.1029663,0.7141724-0.0514526,1.4237671,0.1132202,2.1008301l-1.4540405,10.560791   c-0.046875,0.3413086-0.1806641,0.6669922-0.3862305,0.9423828L8.4371901,55.414505   c-1.0341802,1.3862305-1.195313,3.2075195-0.4199219,4.7529297c1.5047665,3.000061,5.610364,3.3765831,7.6494141,0.7470703   l5.0673819-6.5341797c1.5019531-1.9375,2.4316406-4.25,2.6879883-6.6879883l0.4395752-4.1739502   c1.8978863,1.4021149,3.7280025,1.7485085,4.2318115,3.8800049l2.8520508,12.0786133   c0.4345703,1.8408203,1.9257832,3.2050781,3.79883,3.4750977c3.1466408,0.4525528,5.7875175-2.3696671,5.1245117-5.4799805   l-2.684082-12.5810547c-0.2851563-1.3374023-0.9619141-2.5405273-1.9575195-3.4794922l-6.5656757-6.1920776l0.4906006-3.4041119   c0.9291992,0.6356792,2.0140381,0.9736309,3.1409931,0.9741192c0.9018555,0,1.800293-0.2226563,2.5976563-0.644043   l5.1994019-2.7452984c0.0655518,0.1162109,0.1343994,0.2311401,0.2156372,0.3400269l0.5649414,0.7568359l-1.9155273,1.4375   c-0.4272461,0.3207989-0.7045898,0.7885723-0.7797852,1.3173809c-0.0756836,0.5288086,0.0595703,1.0556641,0.3803711,1.4824219   l5.171875,6.8925781c0.3759766,0.5,0.9741211,0.7988281,1.6000977,0.7988281c0.4355469,0,0.8505859-0.1381836,1.199707-0.4003906   l10.6435547-7.9868164c0.4272461-0.3208008,0.7045898-0.7885742,0.7797852-1.3173828s-0.0595703-1.0556622-0.3803711-1.4829082   L52.3991051,24.3461475z M14.1583815,24.9901905c-0.9633789,0.1123047-1.7329102,0.8613281-1.8710938,1.8212891   l-0.7138672,4.956543c-0.1401367,0.9716778-1.0375977,1.6503887-2.0170898,1.5087872   c-0.972168-0.1401367-1.6489263-1.0449219-1.5087891-2.0170879l0.9287109-6.449707   c0.1938477-1.3442383,1.1557617-2.4785156,2.4506836-2.8891602l6.3295889-2.0067749L17.074091,24.650835L14.1583815,24.9901905z    M21.4327946,47.4833527c-0.2172852,2.0673828-1.0058594,4.0283203-2.2792969,5.6713867l-5.0668936,6.5341797   c-1.1214981,1.4453125-3.4213438,1.2971001-4.2817383-0.4179688c-0.4404297-0.878418-0.3525391-1.8725586,0.2348633-2.6601563   l5.4990234-7.3696289c0.4077148-0.5449219,0.6723623-1.1904297,0.765624-1.8662109l1.1085815-8.0519409   c0.2425537,0.2232056,0.4992065,0.4334106,0.7839966,0.6134644l3.7789307,2.3895264L21.4327946,47.4833527z M35.2286949,45.3080597   l2.684082,12.5810547c0.7019119,3.2864914-4.2455788,4.4122353-5.0209961,1.1279297l-2.8520527-12.0786133   c-0.7837524-3.3192902-3.6509819-3.8787994-6.5189209-6.0021362c-0.0009766-0.0005493-0.001709-0.0011597-0.0026245-0.0016479   l-4.2518921-2.6885986c-0.737854-0.4666138-1.2625122-1.1779785-1.5060425-1.9831543   c-0.0040283-0.0167847-0.0078125-0.0327148-0.0126953-0.0491943c-0.1363525-0.4750366-0.1774292-0.9807739-0.1043091-1.4881592   l2.1196289-14.7128887c0.1089668-0.7562237,0.8376446-1.1719322,1.4516602-1.0859375l4.5439453,0.6542969   c0.8203125,0.1181641,1.5458984,0.5488281,2.0424805,1.2128906c0.2415771,0.3228149,0.4121094,0.6831055,0.5128784,1.0614624   l-1.0597534-0.7523804c-2.1868839-1.551878-5.2290363-0.4485741-5.9526367,2.0922852   c-0.4526367,1.5908203,0.15625,3.2919922,1.515625,4.2338867l4.4975586,3.1160889l-0.7075195,4.9092999   c-0.1661625,1.1515999,1.9682007,2.0381966,7.2480488,7.4121094   C34.5534019,43.5253448,35.0284996,44.3695831,35.2286949,45.3080597z M33.9572105,30.3769093   c-1.1567383,0.6103516-2.6206074,0.5224609-3.6938496-0.222168l-6.3071289-4.3691406   c-0.6557617-0.4545898-0.9492188-1.2753906-0.730957-2.0424805c0.3552113-1.2494259,1.8281517-1.749548,2.8706055-1.0092773   l5.1826172,3.6791992c0.6459961,0.4589844,1.5346699,0.5175781,2.2348652,0.1489258l7.0131836-3.6875   c0.8496094-0.4482422,1.9550781-0.0996094,2.4023438,0.7368164c0.4676018,0.8715801,0.1359291,1.9570961-0.7392578,2.4189453   L33.9572105,30.3769093z M41.9083824,28.5439014c-0.019104-0.0255737-0.0269165-0.0543213-0.0435181-0.0806885l1.2583618-0.6644287   c0.8807945-0.464838,1.5667648-1.2491589,1.8696289-2.3292236c0.6139908,0.1950169,0.5224228,0.4931202,1.0976563,1.1104126   l-3.6203003,2.7167969L41.9083824,28.5439014z M45.327816,41.4257355l-0.0004883-0.9995117   c0.0004883-0.0004883,0.0004883-0.0004883,0.0004883-0.0004883V41.4257355z M45.3268394,40.4257355l-5.1713867-6.8916016   c0.4458618-0.3345833,10.7609062-8.0750504,10.644043-7.9873028l5.1713867,6.8920879L45.3268394,40.4257355z"/></g><text x="0" y="79" fill="#000000" font-size="5px" font-weight="bold" font-family="'Helvetica Neue', Helvetica, Arial-Unicode, Arial, Sans-serif">Created by Vectors Point</text><text x="0" y="84" fill="#000000" font-size="5px" font-weight="bold" font-family="'Helvetica Neue', Helvetica, Arial-Unicode, Arial, Sans-serif">from the Noun Project</text></svg>